<svg xmlns="http://www.w3.org/2000/svg" width="948.865" height="543.045" viewBox="0 0 948.865 543.045">
  <g id="Group_42530" data-name="Group 42530" transform="translate(-380.135 -311.514)">
    <g id="Group_42518" data-name="Group 42518" transform="translate(763.093 416.639)">
      <path id="Path_25082" data-name="Path 25082" d="M2533.338,463.072l-31.586,55.983,31.586,53.8h62.735l30.5-55.33-30.5-54.458Z" transform="translate(-2490.737 -459.471)" fill="none" stroke="#989898" stroke-width="1.5"/>
      <g id="Ellipse_186" data-name="Ellipse 186" transform="translate(127.259 47.51)" fill="none" stroke="#989898" stroke-width="1">
        <circle cx="10.605" cy="10.605" r="10.605" stroke="none"/>
        <circle cx="10.605" cy="10.605" r="10.105" fill="none"/>
      </g>
      <g id="Ellipse_190" data-name="Ellipse 190" transform="translate(0 47.51)" fill="none" stroke="#989898" stroke-width="1">
        <circle cx="10.605" cy="10.605" r="10.605" stroke="none"/>
        <circle cx="10.605" cy="10.605" r="10.105" fill="none"/>
      </g>
      <circle id="Ellipse_187" data-name="Ellipse 187" cx="3.818" cy="3.818" r="3.818" transform="translate(134.046 54.297)" fill="#989898"/>
      <circle id="Ellipse_191" data-name="Ellipse 191" cx="3.818" cy="3.818" r="3.818" transform="translate(6.787 54.297)" fill="#989898"/>
      <circle id="Ellipse_189" data-name="Ellipse 189" cx="3.818" cy="3.818" r="3.818" transform="translate(39.026)" fill="#989898"/>
      <circle id="Ellipse_192" data-name="Ellipse 192" cx="3.818" cy="3.818" r="3.818" transform="translate(39.026 109.443)" fill="#989898"/>
      <circle id="Ellipse_188" data-name="Ellipse 188" cx="3.818" cy="3.818" r="3.818" transform="translate(102.656)" fill="#989898"/>
      <circle id="Ellipse_193" data-name="Ellipse 193" cx="3.818" cy="3.818" r="3.818" transform="translate(102.656 109.443)" fill="#989898"/>
    </g>
    <path id="Path_25057" data-name="Path 25057" d="M2539.94,463.072l-38.187,67.685,38.188,65.051h75.849l36.872-66.895-36.872-65.841Z" transform="translate(-1430.205 -98.366)" fill="#989898" opacity="0.59"/>
    <path id="Path_24889" data-name="Path 24889" d="M2511.3,463.072l-9.547,16.921,9.547,16.263h18.962l9.218-16.724-9.218-16.46Z" transform="translate(-1253.013 97.343)" fill="none" stroke="#989898" stroke-width="1.5"/>
    <path id="Path_25062" data-name="Path 25062" d="M2511.3,463.072l-9.547,16.921,9.547,16.263h18.962l9.218-16.724-9.218-16.46Z" transform="translate(-1253.013 64.159)" fill="none" stroke="#989898" stroke-width="1.5"/>
    <path id="Path_25061" data-name="Path 25061" d="M2511.3,463.072l-9.547,16.921,9.547,16.263h18.962l9.218-16.724-9.218-16.46Z" transform="translate(-1299.201 139.268)" fill="none" stroke="#989898" stroke-width="1"/>
    <path id="Path_25064" data-name="Path 25064" d="M2511.3,463.072l-9.547,16.921,9.547,16.263h18.962l9.218-16.724-9.218-16.46Z" transform="translate(-1304.175 166.98)" fill="none" stroke="#989898" stroke-width="1"/>
    <path id="Path_25079" data-name="Path 25079" d="M2538.487,463.072l-36.734,65.107,36.734,62.574h72.96l35.468-64.348-35.468-63.334Z" transform="translate(-1514.533 26.37)" fill="none" stroke="#989898" stroke-width="1.5"/>
    <path id="Path_25080" data-name="Path 25080" d="M2538.487,463.072l-36.734,65.107,36.734,62.574h72.96l35.468-64.348-35.468-63.334Z" transform="translate(-1559.3 83.184)" fill="none" stroke="#989898" stroke-width="1.5"/>
    <path id="Path_25093" data-name="Path 25093" d="M2523.727,463.072l-21.975,38.948,21.975,37.432h43.645l21.217-38.493-21.217-37.887Z" transform="translate(-2120.753 155.811)" fill="none" stroke="#989898" stroke-width="1.5"/>
    <path id="Path_25077" data-name="Path 25077" d="M2530.583,463.072l-28.831,51.1,28.831,49.111h57.263l27.836-50.5-27.836-49.708Z" transform="translate(-1477.031 184.745)" fill="none" stroke="#989898" stroke-width="1.5"/>
    <path id="Path_25102" data-name="Path 25102" d="M2539.234,463.072,2501.752,529.5l37.482,63.847h74.444l36.189-65.656-36.189-64.623Z" transform="translate(-1383.207 195.256)" fill="none" stroke="#989898" stroke-width="1.5"/>
    <path id="Path_25089" data-name="Path 25089" d="M2525.049,463.072l-23.3,41.29,23.3,39.684h46.271l22.492-40.808-22.492-40.166Z" transform="translate(-1621.008 208.766)" fill="none" stroke="#989898" stroke-width="1.5"/>
    <path id="Path_25096" data-name="Path 25096" d="M2510.95,463.072l-9.2,16.3,9.2,15.668h18.269l8.88-16.112-8.88-15.858Z" transform="translate(-1618.876 156.737)" fill="none" stroke="#989898" stroke-width="1.5"/>
    <path id="Path_25095" data-name="Path 25095" d="M2523.751,463.072l-22,38.99,22,37.473h43.693L2588.684,501l-21.24-37.928Z" transform="translate(-2075.922 4.673)" fill="none" stroke="#989898" stroke-width="1.5"/>
    <path id="Path_25081" data-name="Path 25081" d="M2511.076,463.072l-9.323,16.525,9.323,15.882h18.519l9-16.332-9-16.075Z" transform="translate(-1575.051 47.41)" fill="none" stroke="#989898" stroke-width="1.5"/>
    <path id="Path_25073" data-name="Path 25073" d="M2504.373,463.072l-2.62,4.644,2.62,4.463h5.2l2.53-4.59-2.53-4.518Z" transform="translate(-1254.756 43.339)" fill="none" stroke="#989898" stroke-width="1"/>
    <path id="Path_25072" data-name="Path 25072" d="M2504.373,463.072l-2.62,4.644,2.62,4.463h5.2l2.53-4.59-2.53-4.518Z" transform="translate(-1239.327 43.339)" fill="none" stroke="#989898" stroke-width="1"/>
    <g id="Group_42506" data-name="Group 42506" transform="translate(1171.996 801.303)">
      <path id="Path_25068" data-name="Path 25068" d="M2504.373,463.072l-2.62,4.644,2.62,4.463h5.2l2.53-4.59-2.53-4.518Z" transform="translate(-2501.752 -463.072)" fill="none" stroke="#989898" stroke-width="1"/>
      <path id="Path_25069" data-name="Path 25069" d="M2504.373,463.072l-2.62,4.644,2.62,4.463h5.2l2.53-4.59-2.53-4.518Z" transform="translate(-2486.323 -463.072)" fill="none" stroke="#989898" stroke-width="1"/>
      <path id="Path_25070" data-name="Path 25070" d="M2504.373,463.072l-2.62,4.644,2.62,4.463h5.2l2.53-4.59-2.53-4.518Z" transform="translate(-2470.893 -463.072)" fill="none" stroke="#989898" stroke-width="1"/>
    </g>
    <g id="Group_42507" data-name="Group 42507" transform="translate(884.017 693.368)">
      <path id="Path_25068-2" data-name="Path 25068" d="M2504.373,463.072l-2.62,4.644,2.62,4.463h5.2l2.53-4.59-2.53-4.518Z" transform="translate(-2501.752 -463.072)" fill="none" stroke="#989898" stroke-width="1"/>
      <path id="Path_25069-2" data-name="Path 25069" d="M2504.373,463.072l-2.62,4.644,2.62,4.463h5.2l2.53-4.59-2.53-4.518Z" transform="translate(-2486.323 -463.072)" fill="none" stroke="#989898" stroke-width="1"/>
      <path id="Path_25070-2" data-name="Path 25070" d="M2504.373,463.072l-2.62,4.644,2.62,4.463h5.2l2.53-4.59-2.53-4.518Z" transform="translate(-2470.893 -463.072)" fill="none" stroke="#989898" stroke-width="1"/>
    </g>
    <g id="Group_42509" data-name="Group 42509" transform="translate(549.612 642.917)">
      <path id="Path_25068-3" data-name="Path 25068" d="M2504.373,463.072l-2.62,4.644,2.62,4.463h5.2l2.53-4.59-2.53-4.518Z" transform="translate(-2501.752 -463.072)" fill="none" stroke="#989898" stroke-width="1"/>
      <path id="Path_25069-3" data-name="Path 25069" d="M2504.373,463.072l-2.62,4.644,2.62,4.463h5.2l2.53-4.59-2.53-4.518Z" transform="translate(-2486.323 -463.072)" fill="none" stroke="#989898" stroke-width="1"/>
      <path id="Path_25070-3" data-name="Path 25070" d="M2504.373,463.072l-2.62,4.644,2.62,4.463h5.2l2.53-4.59-2.53-4.518Z" transform="translate(-2470.893 -463.072)" fill="none" stroke="#989898" stroke-width="1"/>
    </g>
    <g id="Group_42510" data-name="Group 42510" transform="translate(403.812 679.889)">
      <path id="Path_25068-4" data-name="Path 25068" d="M2504.373,463.072l-2.62,4.644,2.62,4.463h5.2l2.53-4.59-2.53-4.518Z" transform="translate(-2501.752 -463.072)" fill="none" stroke="#989898" stroke-width="1"/>
      <path id="Path_25069-4" data-name="Path 25069" d="M2504.373,463.072l-2.62,4.644,2.62,4.463h5.2l2.53-4.59-2.53-4.518Z" transform="translate(-2486.323 -463.072)" fill="none" stroke="#989898" stroke-width="1"/>
      <path id="Path_25070-4" data-name="Path 25070" d="M2504.373,463.072l-2.62,4.644,2.62,4.463h5.2l2.53-4.59-2.53-4.518Z" transform="translate(-2470.893 -463.072)" fill="none" stroke="#989898" stroke-width="1"/>
    </g>
    <path id="Path_25071" data-name="Path 25071" d="M2504.373,463.072l-2.62,4.644,2.62,4.463h5.2l2.53-4.59-2.53-4.518Z" transform="translate(-1223.897 43.339)" fill="none" stroke="#989898" stroke-width="1"/>
    <g id="Group_42529" data-name="Group 42529" transform="translate(1237.524 642.09)">
      <path id="Path_25075" data-name="Path 25075" d="M2504.373,463.072l-2.62,4.644,2.62,4.463h5.2l2.53-4.59-2.53-4.518Z" transform="translate(-2501.752 -463.072)" fill="none" stroke="#989898" stroke-width="1"/>
      <path id="Path_25074" data-name="Path 25074" d="M2504.373,463.072l-2.62,4.644,2.62,4.463h5.2l2.53-4.59-2.53-4.518Z" transform="translate(-2486.323 -463.072)" fill="none" stroke="#989898" stroke-width="1"/>
    </g>
    <g id="Group_42501" data-name="Group 42501" transform="translate(1127.403 348.554)">
      <path id="Path_25084" data-name="Path 25084" d="M2504.373,463.072l-2.62,4.644,2.62,4.463h5.2l2.53-4.59-2.53-4.518Z" transform="translate(-2501.752 -463.072)" fill="none" stroke="#989898" stroke-width="1"/>
      <path id="Path_25085" data-name="Path 25085" d="M2504.373,463.072l-2.62,4.644,2.62,4.463h5.2l2.53-4.59-2.53-4.518Z" transform="translate(-2486.498 -463.072)" fill="none" stroke="#989898" stroke-width="1"/>
      <path id="Path_25086" data-name="Path 25086" d="M2504.373,463.072l-2.62,4.644,2.62,4.463h5.2l2.53-4.59-2.53-4.518Z" transform="translate(-2471.245 -463.072)" fill="none" stroke="#989898" stroke-width="1"/>
    </g>
    <g id="Group_42502" data-name="Group 42502" transform="translate(715.264 451.16)">
      <path id="Path_25084-2" data-name="Path 25084" d="M2504.373,463.072l-2.62,4.644,2.62,4.463h5.2l2.53-4.59-2.53-4.518Z" transform="translate(-2501.752 -463.072)" fill="none" stroke="#989898" stroke-width="1"/>
      <path id="Path_25085-2" data-name="Path 25085" d="M2504.373,463.072l-2.62,4.644,2.62,4.463h5.2l2.53-4.59-2.53-4.518Z" transform="translate(-2486.498 -463.072)" fill="none" stroke="#989898" stroke-width="1"/>
      <path id="Path_25086-2" data-name="Path 25086" d="M2504.373,463.072l-2.62,4.644,2.62,4.463h5.2l2.53-4.59-2.53-4.518Z" transform="translate(-2471.245 -463.072)" fill="none" stroke="#989898" stroke-width="1"/>
    </g>
    <path id="Path_24890" data-name="Path 24890" d="M2257.124,644.064l52.255-89.248H2411.3l50.445,89.248L2411.3,732.277" transform="translate(-1356.167 -110.531)" fill="none" stroke="#46c6c9" stroke-width="5"/>
    <path id="Path_25059" data-name="Path 25059" d="M2257.124,643.029l52.255,89.248H2411.3l50.445-89.248L2411.3,554.815" transform="translate(-1277.75 53.614)" fill="none" stroke="#989898" stroke-width="5"/>
    <path id="Path_24891" data-name="Path 24891" d="M2461.747,643.029l-52.255,89.248H2307.568l-50.445-89.248,50.445-88.213" transform="translate(-1474.528 -62.922)" fill="none" stroke="#989898" stroke-width="5"/>
    <path id="Path_25058" data-name="Path 25058" d="M4081.72,503.9l50.931-87.732H4235.5l50.6,89.046-50.6,87.075" transform="translate(-3057.724 -40.561)" fill="none" stroke="#989898" stroke-width="5"/>
    <path id="Path_25060" data-name="Path 25060" d="M4295.078,653.426l-35.892,63.948,35.892,62.937h73.047l35.386-62.937" transform="translate(-3104.507 -109.226)" fill="none" stroke="#989898" stroke-width="5"/>
    <path id="Path_25063" data-name="Path 25063" d="M4445.479,605.025l-14.6-24.518h-72.794l-36.649,62.684,36.649,62.684" transform="translate(-3127.103 -88.122)" fill="none" stroke="#6e6e6e" stroke-width="1"/>
    <path id="Path_25065" data-name="Path 25065" d="M4331.255,685.825h53.381" transform="translate(-3129.944 -118.602)" fill="none" stroke="#989898" stroke-width="1"/>
    <path id="Path_25066" data-name="Path 25066" d="M4331.255,685.825h53.381" transform="translate(-3082.516 -88.758)" fill="none" stroke="#989898" stroke-width="1"/>
    <g id="Group_42496" data-name="Group 42496" transform="translate(1203.91 342.25)">
      <path id="Path_25082-2" data-name="Path 25082" d="M2528.365,463.072l-26.612,47.168,26.612,45.332h52.856l25.695-46.617-25.695-45.883Z" transform="translate(-2492.471 -460.038)" fill="none" stroke="#989898" stroke-width="1.5"/>
      <g id="Ellipse_186-2" data-name="Ellipse 186" transform="translate(107.22 40.029)" fill="none" stroke="#989898" stroke-width="1">
        <circle cx="8.935" cy="8.935" r="8.935" stroke="none"/>
        <circle cx="8.935" cy="8.935" r="8.435" fill="none"/>
      </g>
      <g id="Ellipse_190-2" data-name="Ellipse 190" transform="translate(0 40.029)" fill="none" stroke="#989898" stroke-width="1">
        <circle cx="8.935" cy="8.935" r="8.935" stroke="none"/>
        <circle cx="8.935" cy="8.935" r="8.435" fill="none"/>
      </g>
      <circle id="Ellipse_187-2" data-name="Ellipse 187" cx="3.217" cy="3.217" r="3.217" transform="translate(112.938 45.747)" fill="#989898"/>
      <circle id="Ellipse_191-2" data-name="Ellipse 191" cx="3.217" cy="3.217" r="3.217" transform="translate(5.718 45.747)" fill="#989898"/>
      <circle id="Ellipse_189-2" data-name="Ellipse 189" cx="3.217" cy="3.217" r="3.217" transform="translate(32.881)" fill="#989898"/>
      <circle id="Ellipse_192-2" data-name="Ellipse 192" cx="3.217" cy="3.217" r="3.217" transform="translate(32.881 92.209)" fill="#989898"/>
      <circle id="Ellipse_188-2" data-name="Ellipse 188" cx="3.217" cy="3.217" r="3.217" transform="translate(86.491)" fill="#989898"/>
      <circle id="Ellipse_193-2" data-name="Ellipse 193" cx="3.217" cy="3.217" r="3.217" transform="translate(86.491 92.209)" fill="#989898"/>
    </g>
    <g id="Group_42520" data-name="Group 42520" transform="translate(1156.865 722.641)">
      <path id="Path_25082-3" data-name="Path 25082" d="M2528.365,463.072l-26.612,47.168,26.612,45.332h52.856l25.695-46.617-25.695-45.883Z" transform="translate(-2492.471 -460.038)" fill="none" stroke="#989898" stroke-width="1.5"/>
      <g id="Ellipse_186-3" data-name="Ellipse 186" transform="translate(107.22 40.029)" fill="none" stroke="#989898" stroke-width="1">
        <circle cx="8.935" cy="8.935" r="8.935" stroke="none"/>
        <circle cx="8.935" cy="8.935" r="8.435" fill="none"/>
      </g>
      <g id="Ellipse_190-3" data-name="Ellipse 190" transform="translate(0 40.029)" fill="none" stroke="#989898" stroke-width="1">
        <circle cx="8.935" cy="8.935" r="8.935" stroke="none"/>
        <circle cx="8.935" cy="8.935" r="8.435" fill="none"/>
      </g>
      <circle id="Ellipse_187-3" data-name="Ellipse 187" cx="3.217" cy="3.217" r="3.217" transform="translate(112.938 45.747)" fill="#989898"/>
      <circle id="Ellipse_191-3" data-name="Ellipse 191" cx="3.217" cy="3.217" r="3.217" transform="translate(5.718 45.747)" fill="#989898"/>
      <circle id="Ellipse_189-3" data-name="Ellipse 189" cx="3.217" cy="3.217" r="3.217" transform="translate(32.881)" fill="#989898"/>
      <circle id="Ellipse_192-3" data-name="Ellipse 192" cx="3.217" cy="3.217" r="3.217" transform="translate(32.881 92.209)" fill="#989898"/>
      <circle id="Ellipse_188-3" data-name="Ellipse 188" cx="3.217" cy="3.217" r="3.217" transform="translate(86.491)" fill="#989898"/>
      <circle id="Ellipse_193-3" data-name="Ellipse 193" cx="3.217" cy="3.217" r="3.217" transform="translate(86.491 92.209)" fill="#989898"/>
    </g>
    <g id="Group_42524" data-name="Group 42524" transform="translate(664.127 625.871)">
      <path id="Path_25082-4" data-name="Path 25082" d="M2536.906,463.072l-35.154,62.307,35.154,59.882h69.822l33.941-61.579-33.941-60.61Z" transform="translate(-2489.492 -459.064)" fill="none" stroke="#989898" stroke-width="1.5"/>
      <g id="Ellipse_186-4" data-name="Ellipse 186" transform="translate(141.633 52.876)" fill="none" stroke="#989898" stroke-width="1.5">
        <circle cx="11.803" cy="11.803" r="11.803" stroke="none"/>
        <circle cx="11.803" cy="11.803" r="11.053" fill="none"/>
      </g>
      <g id="Ellipse_190-4" data-name="Ellipse 190" transform="translate(0 52.876)" fill="none" stroke="#989898" stroke-width="1.5">
        <circle cx="11.803" cy="11.803" r="11.803" stroke="none"/>
        <circle cx="11.803" cy="11.803" r="11.053" fill="none"/>
      </g>
      <circle id="Ellipse_187-4" data-name="Ellipse 187" cx="4.249" cy="4.249" r="4.249" transform="translate(149.187 60.43)" fill="#989898"/>
      <circle id="Ellipse_191-4" data-name="Ellipse 191" cx="4.249" cy="4.249" r="4.249" transform="translate(7.554 60.43)" fill="#989898"/>
      <circle id="Ellipse_189-4" data-name="Ellipse 189" cx="4.249" cy="4.249" r="4.249" transform="translate(43.434)" fill="#989898"/>
      <circle id="Ellipse_192-4" data-name="Ellipse 192" cx="4.249" cy="4.249" r="4.249" transform="translate(43.434 121.805)" fill="#989898"/>
      <circle id="Ellipse_188-4" data-name="Ellipse 188" cx="4.249" cy="4.249" r="4.249" transform="translate(114.251)" fill="#989898"/>
      <circle id="Ellipse_193-4" data-name="Ellipse 193" cx="4.249" cy="4.249" r="4.249" transform="translate(114.251 121.805)" fill="#989898"/>
    </g>
    <g id="Group_42522" data-name="Group 42522" transform="translate(978.275 733.777)">
      <path id="Path_25082-5" data-name="Path 25082" d="M2533.452,463.072l-31.7,56.185,31.7,54h62.962l30.607-55.529-30.607-54.655Z" transform="translate(-2490.697 -459.458)" fill="none" stroke="#989898" stroke-width="1.5"/>
      <g id="Ellipse_186-5" data-name="Ellipse 186" transform="translate(127.718 47.682)" fill="none" stroke="#989898" stroke-width="1.5">
        <circle cx="10.643" cy="10.643" r="10.643" stroke="none"/>
        <circle cx="10.643" cy="10.643" r="9.893" fill="none"/>
      </g>
      <g id="Ellipse_190-5" data-name="Ellipse 190" transform="translate(0 47.682)" fill="none" stroke="#989898" stroke-width="1.5">
        <circle cx="10.643" cy="10.643" r="10.643" stroke="none"/>
        <circle cx="10.643" cy="10.643" r="9.893" fill="none"/>
      </g>
      <circle id="Ellipse_187-5" data-name="Ellipse 187" cx="3.832" cy="3.832" r="3.832" transform="translate(134.53 54.493)" fill="#989898"/>
      <circle id="Ellipse_191-5" data-name="Ellipse 191" cx="3.832" cy="3.832" r="3.832" transform="translate(6.812 54.493)" fill="#989898"/>
      <circle id="Ellipse_189-5" data-name="Ellipse 189" cx="3.832" cy="3.832" r="3.832" transform="translate(39.167)" fill="#989898"/>
      <circle id="Ellipse_192-5" data-name="Ellipse 192" cx="3.832" cy="3.832" r="3.832" transform="translate(39.167 109.838)" fill="#989898"/>
      <circle id="Ellipse_188-5" data-name="Ellipse 188" cx="3.832" cy="3.832" r="3.832" transform="translate(103.026)" fill="#989898"/>
      <circle id="Ellipse_193-5" data-name="Ellipse 193" cx="3.832" cy="3.832" r="3.832" transform="translate(103.026 109.838)" fill="#989898"/>
    </g>
    <g id="Group_42517" data-name="Group 42517" transform="translate(946.459 311.514)">
      <path id="Path_25082-6" data-name="Path 25082" d="M2528.365,463.072l-26.612,47.168,26.612,45.332h52.856l25.695-46.617-25.695-45.883Z" transform="translate(-2492.471 -460.038)" fill="none" stroke="#989898" stroke-width="1"/>
      <g id="Ellipse_186-6" data-name="Ellipse 186" transform="translate(107.22 40.029)" fill="none" stroke="#989898" stroke-width="1">
        <circle cx="8.935" cy="8.935" r="8.935" stroke="none"/>
        <circle cx="8.935" cy="8.935" r="8.435" fill="none"/>
      </g>
      <g id="Ellipse_190-6" data-name="Ellipse 190" transform="translate(0 40.029)" fill="none" stroke="#989898" stroke-width="1">
        <circle cx="8.935" cy="8.935" r="8.935" stroke="none"/>
        <circle cx="8.935" cy="8.935" r="8.435" fill="none"/>
      </g>
      <circle id="Ellipse_187-6" data-name="Ellipse 187" cx="3.217" cy="3.217" r="3.217" transform="translate(112.938 45.747)" fill="#989898"/>
      <circle id="Ellipse_191-6" data-name="Ellipse 191" cx="3.217" cy="3.217" r="3.217" transform="translate(5.718 45.747)" fill="#989898"/>
      <circle id="Ellipse_189-6" data-name="Ellipse 189" cx="3.217" cy="3.217" r="3.217" transform="translate(32.881)" fill="#989898"/>
      <circle id="Ellipse_192-6" data-name="Ellipse 192" cx="3.217" cy="3.217" r="3.217" transform="translate(32.881 92.209)" fill="#989898"/>
      <circle id="Ellipse_188-6" data-name="Ellipse 188" cx="3.217" cy="3.217" r="3.217" transform="translate(86.491)" fill="#989898"/>
      <circle id="Ellipse_193-6" data-name="Ellipse 193" cx="3.217" cy="3.217" r="3.217" transform="translate(86.491 92.209)" fill="#989898"/>
    </g>
    <circle id="Ellipse_185" data-name="Ellipse 185" cx="4.909" cy="4.909" r="4.909" transform="translate(1240.278 626.913)" fill="#989898"/>
    <g id="Ellipse_180" data-name="Ellipse 180" transform="translate(1260.733 626.913)" fill="none" stroke="#989898" stroke-width="1">
      <circle cx="4.909" cy="4.909" r="4.909" stroke="none"/>
      <circle cx="4.909" cy="4.909" r="4.409" fill="none"/>
    </g>
    <circle id="Ellipse_182" data-name="Ellipse 182" cx="4.909" cy="4.909" r="4.909" transform="translate(1300.824 626.913)" fill="#989898"/>
    <g id="Group_42497" data-name="Group 42497" transform="translate(1192.772 525.458)">
      <circle id="Ellipse_179" data-name="Ellipse 179" cx="4.909" cy="4.909" r="4.909" transform="translate(0 0)" fill="#989898"/>
      <g id="Ellipse_178" data-name="Ellipse 178" transform="translate(20.455 0)" fill="none" stroke="#989898" stroke-width="1">
        <ellipse cx="4.5" cy="4.909" rx="4.5" ry="4.909" stroke="none"/>
        <ellipse cx="4.5" cy="4.909" rx="4" ry="4.409" fill="none"/>
      </g>
      <circle id="Ellipse_174" data-name="Ellipse 174" cx="4.909" cy="4.909" r="4.909" transform="translate(40.091 0)" fill="#989898"/>
      <circle id="Ellipse_175" data-name="Ellipse 175" cx="4.909" cy="4.909" r="4.909" transform="translate(60.546 0)" fill="#989898"/>
      <circle id="Ellipse_176" data-name="Ellipse 176" cx="4.909" cy="4.909" r="4.909" transform="translate(81 0)" fill="#989898"/>
      <g id="Ellipse_177" data-name="Ellipse 177" transform="translate(101.455 0)" fill="none" stroke="#989898" stroke-width="1">
        <circle cx="4.909" cy="4.909" r="4.909" stroke="none"/>
        <circle cx="4.909" cy="4.909" r="4.409" fill="none"/>
      </g>
    </g>
    <g id="Group_42498" data-name="Group 42498" transform="translate(1092.135 311.912)">
      <circle id="Ellipse_179-2" data-name="Ellipse 179" cx="4.909" cy="4.909" r="4.909" transform="translate(0 0)" fill="#989898"/>
      <g id="Ellipse_178-2" data-name="Ellipse 178" transform="translate(21.273 0)" fill="none" stroke="#989898" stroke-width="1">
        <circle cx="4.909" cy="4.909" r="4.909" stroke="none"/>
        <circle cx="4.909" cy="4.909" r="4.409" fill="none"/>
      </g>
      <circle id="Ellipse_174-2" data-name="Ellipse 174" cx="4.909" cy="4.909" r="4.909" transform="translate(40.909 0)" fill="#989898"/>
      <circle id="Ellipse_175-2" data-name="Ellipse 175" cx="4.909" cy="4.909" r="4.909" transform="translate(61.364 0)" fill="#989898"/>
      <circle id="Ellipse_176-2" data-name="Ellipse 176" cx="4.909" cy="4.909" r="4.909" transform="translate(81 0)" fill="#989898"/>
      <g id="Ellipse_177-2" data-name="Ellipse 177" transform="translate(102.273 0)" fill="none" stroke="#989898" stroke-width="1">
        <circle cx="4.909" cy="4.909" r="4.909" stroke="none"/>
        <circle cx="4.909" cy="4.909" r="4.409" fill="none"/>
      </g>
    </g>
    <g id="Group_42521" data-name="Group 42521" transform="translate(1120.028 844.741)">
      <circle id="Ellipse_179-3" data-name="Ellipse 179" cx="4.909" cy="4.909" r="4.909" transform="translate(0 0)" fill="#989898"/>
      <g id="Ellipse_178-3" data-name="Ellipse 178" transform="translate(21.273 0)" fill="none" stroke="#989898" stroke-width="1">
        <circle cx="4.909" cy="4.909" r="4.909" stroke="none"/>
        <circle cx="4.909" cy="4.909" r="4.409" fill="none"/>
      </g>
      <circle id="Ellipse_174-3" data-name="Ellipse 174" cx="4.909" cy="4.909" r="4.909" transform="translate(40.909 0)" fill="#989898"/>
      <circle id="Ellipse_175-3" data-name="Ellipse 175" cx="4.909" cy="4.909" r="4.909" transform="translate(61.364 0)" fill="#989898"/>
      <circle id="Ellipse_176-3" data-name="Ellipse 176" cx="4.909" cy="4.909" r="4.909" transform="translate(81 0)" fill="#989898"/>
      <g id="Ellipse_177-3" data-name="Ellipse 177" transform="translate(102.273 0)" fill="none" stroke="#989898" stroke-width="1">
        <circle cx="4.909" cy="4.909" r="4.909" stroke="none"/>
        <circle cx="4.909" cy="4.909" r="4.409" fill="none"/>
      </g>
    </g>
    <g id="Group_42523" data-name="Group 42523" transform="translate(855.138 767.053)">
      <circle id="Ellipse_179-4" data-name="Ellipse 179" cx="4.909" cy="4.909" r="4.909" transform="translate(0 0)" fill="#989898"/>
      <g id="Ellipse_178-4" data-name="Ellipse 178" transform="translate(21.273 0)" fill="none" stroke="#989898" stroke-width="1">
        <circle cx="4.909" cy="4.909" r="4.909" stroke="none"/>
        <circle cx="4.909" cy="4.909" r="4.409" fill="none"/>
      </g>
      <circle id="Ellipse_174-4" data-name="Ellipse 174" cx="4.909" cy="4.909" r="4.909" transform="translate(40.909 0)" fill="#989898"/>
      <circle id="Ellipse_175-4" data-name="Ellipse 175" cx="4.909" cy="4.909" r="4.909" transform="translate(61.364 0)" fill="#989898"/>
      <circle id="Ellipse_176-4" data-name="Ellipse 176" cx="4.909" cy="4.909" r="4.909" transform="translate(81 0)" fill="#989898"/>
      <g id="Ellipse_177-4" data-name="Ellipse 177" transform="translate(102.273 0)" fill="none" stroke="#989898" stroke-width="1">
        <circle cx="4.909" cy="4.909" r="4.909" stroke="none"/>
        <circle cx="4.909" cy="4.909" r="4.409" fill="none"/>
      </g>
    </g>
    <g id="Group_42525" data-name="Group 42525" transform="translate(540.968 618.883)">
      <circle id="Ellipse_179-5" data-name="Ellipse 179" cx="2.854" cy="2.854" r="2.854" transform="translate(0 0)" fill="#989898"/>
      <g id="Ellipse_178-5" data-name="Ellipse 178" transform="translate(12.369 0)" fill="none" stroke="#989898" stroke-width="1">
        <circle cx="2.854" cy="2.854" r="2.854" stroke="none"/>
        <circle cx="2.854" cy="2.854" r="2.354" fill="none"/>
      </g>
      <circle id="Ellipse_174-5" data-name="Ellipse 174" cx="2.854" cy="2.854" r="2.854" transform="translate(23.787 0)" fill="#989898"/>
      <circle id="Ellipse_175-5" data-name="Ellipse 175" cx="2.854" cy="2.854" r="2.854" transform="translate(35.681 0)" fill="#989898"/>
      <circle id="Ellipse_176-5" data-name="Ellipse 176" cx="2.854" cy="2.854" r="2.854" transform="translate(47.099 0)" fill="#989898"/>
      <g id="Ellipse_177-5" data-name="Ellipse 177" transform="translate(59.468 0)" fill="none" stroke="#989898" stroke-width="1">
        <circle cx="2.854" cy="2.854" r="2.854" stroke="none"/>
        <circle cx="2.854" cy="2.854" r="2.354" fill="none"/>
      </g>
    </g>
    <g id="Group_42519" data-name="Group 42519" transform="translate(896.912 386.662)">
      <circle id="Ellipse_179-6" data-name="Ellipse 179" cx="4.909" cy="4.909" r="4.909" transform="translate(0 0)" fill="#989898"/>
      <g id="Ellipse_178-6" data-name="Ellipse 178" transform="translate(21.273 0)" fill="none" stroke="#989898" stroke-width="1">
        <circle cx="4.909" cy="4.909" r="4.909" stroke="none"/>
        <circle cx="4.909" cy="4.909" r="4.409" fill="none"/>
      </g>
      <circle id="Ellipse_174-6" data-name="Ellipse 174" cx="4.909" cy="4.909" r="4.909" transform="translate(40.909 0)" fill="#989898"/>
      <circle id="Ellipse_175-6" data-name="Ellipse 175" cx="4.909" cy="4.909" r="4.909" transform="translate(61.364 0)" fill="#989898"/>
      <circle id="Ellipse_176-6" data-name="Ellipse 176" cx="4.909" cy="4.909" r="4.909" transform="translate(81 0)" fill="#989898"/>
      <g id="Ellipse_177-6" data-name="Ellipse 177" transform="translate(102.273 0)" fill="none" stroke="#989898" stroke-width="1">
        <circle cx="4.909" cy="4.909" r="4.909" stroke="none"/>
        <circle cx="4.909" cy="4.909" r="4.409" fill="none"/>
      </g>
    </g>
    <g id="Group_42527" data-name="Group 42527" transform="translate(536.455 533.718)">
      <circle id="Ellipse_179-7" data-name="Ellipse 179" cx="4.909" cy="4.909" r="4.909" transform="translate(0 0)" fill="#989898"/>
      <g id="Ellipse_178-7" data-name="Ellipse 178" transform="translate(21.273 0)" fill="none" stroke="#989898" stroke-width="1">
        <circle cx="4.909" cy="4.909" r="4.909" stroke="none"/>
        <circle cx="4.909" cy="4.909" r="4.409" fill="none"/>
      </g>
      <circle id="Ellipse_174-7" data-name="Ellipse 174" cx="4.909" cy="4.909" r="4.909" transform="translate(40.909 0)" fill="#989898"/>
      <circle id="Ellipse_175-7" data-name="Ellipse 175" cx="4.909" cy="4.909" r="4.909" transform="translate(61.364 0)" fill="#989898"/>
      <circle id="Ellipse_176-7" data-name="Ellipse 176" cx="4.909" cy="4.909" r="4.909" transform="translate(81 0)" fill="#989898"/>
      <g id="Ellipse_177-7" data-name="Ellipse 177" transform="translate(102.273 0)" fill="none" stroke="#989898" stroke-width="1">
        <circle cx="4.909" cy="4.909" r="4.909" stroke="none"/>
        <circle cx="4.909" cy="4.909" r="4.409" fill="none"/>
      </g>
    </g>
    <g id="Group_42528" data-name="Group 42528" transform="translate(659.218 572.195)">
      <circle id="Ellipse_179-8" data-name="Ellipse 179" cx="4.909" cy="4.909" r="4.909" transform="translate(0 0)" fill="#989898"/>
      <g id="Ellipse_178-8" data-name="Ellipse 178" transform="translate(21.273 0)" fill="none" stroke="#989898" stroke-width="1">
        <circle cx="4.909" cy="4.909" r="4.909" stroke="none"/>
        <circle cx="4.909" cy="4.909" r="4.409" fill="none"/>
      </g>
      <circle id="Ellipse_174-8" data-name="Ellipse 174" cx="4.909" cy="4.909" r="4.909" transform="translate(40.909 0)" fill="#989898"/>
      <circle id="Ellipse_175-8" data-name="Ellipse 175" cx="4.909" cy="4.909" r="4.909" transform="translate(61.364 0)" fill="#989898"/>
      <circle id="Ellipse_176-8" data-name="Ellipse 176" cx="4.909" cy="4.909" r="4.909" transform="translate(81 0)" fill="#989898"/>
      <g id="Ellipse_177-8" data-name="Ellipse 177" transform="translate(102.273 0)" fill="none" stroke="#989898" stroke-width="1">
        <circle cx="4.909" cy="4.909" r="4.909" stroke="none"/>
        <circle cx="4.909" cy="4.909" r="4.409" fill="none"/>
      </g>
    </g>
    <g id="Group_42512" data-name="Group 42512" transform="translate(449.042 473.094)">
      <circle id="Ellipse_174-9" data-name="Ellipse 174" cx="4.909" cy="4.909" r="4.909" transform="translate(0 0)" fill="#989898"/>
      <circle id="Ellipse_175-9" data-name="Ellipse 175" cx="4.909" cy="4.909" r="4.909" transform="translate(15.546 0)" fill="#989898"/>
      <circle id="Ellipse_176-9" data-name="Ellipse 176" cx="4.909" cy="4.909" r="4.909" transform="translate(31.091 0)" fill="#989898"/>
    </g>
    <g id="Group_42526" data-name="Group 42526" transform="translate(607.637 516.868)">
      <circle id="Ellipse_174-10" data-name="Ellipse 174" cx="4.909" cy="4.909" r="4.909" transform="translate(0 0)" fill="#989898"/>
      <circle id="Ellipse_175-10" data-name="Ellipse 175" cx="4.909" cy="4.909" r="4.909" transform="translate(15.546 0)" fill="#989898"/>
      <circle id="Ellipse_176-10" data-name="Ellipse 176" cx="4.909" cy="4.909" r="4.909" transform="translate(31.091 0)" fill="#989898"/>
    </g>
    <g id="Group_42513" data-name="Group 42513" transform="translate(760.77 703.004)">
      <circle id="Ellipse_174-11" data-name="Ellipse 174" cx="4.5" cy="4.5" r="4.5" transform="translate(0 0)" fill="#989898"/>
      <circle id="Ellipse_175-11" data-name="Ellipse 175" cx="4.5" cy="4.5" r="4.5" transform="translate(15.546 0)" fill="#989898"/>
      <circle id="Ellipse_176-11" data-name="Ellipse 176" cx="4.5" cy="4.5" r="4.5" transform="translate(30.273 0)" fill="#989898"/>
    </g>
    <path id="Path_25078" data-name="Path 25078" d="M3972.619,741.494l48.3,89.933h104.491l51.917-89.933-51.917-87.175" transform="translate(-3026.149 -109.484)" fill="none" stroke="#707070" stroke-width="1"/>
    <path id="Path_25083" data-name="Path 25083" d="M3858.456,570.485l-56.226,94.83,52.114,88.85" transform="translate(-2976.836 -85.221)" fill="none" stroke="#989898" stroke-width="1.5"/>
    <path id="Path_25087" data-name="Path 25087" d="M3637.451,510.083h57.124l29.068,50.8" transform="translate(-2929.146 -67.74)" fill="none" stroke="#989898" stroke-width="1"/>
    <path id="Path_25088" data-name="Path 25088" d="M3566.665,664.088l24.265-41.958h48.53l26.034,41.958" transform="translate(-2902.234 -100.168)" fill="none" stroke="#989898" stroke-width="1.5"/>
    <path id="Path_25090" data-name="Path 25090" d="M3383.53,743.572h81.819l41.4,71.632" transform="translate(-2855.658 -135.315)" fill="none" stroke="#989898" stroke-width="1.5"/>
    <path id="Path_25091" data-name="Path 25091" d="M3630,729.237l24.973,43.045h48.3l24.315-43.045" transform="translate(-2926.99 -131.166)" fill="none" stroke="#989898" stroke-width="1.5"/>
    <path id="Path_25092" data-name="Path 25092" d="M3226.62,651.653l-29.9,49.545,28.587,51.917h59.8l29.244-50.274" transform="translate(-2801.592 -108.713)" fill="none" stroke="#989898" stroke-width="1.5"/>
    <path id="Path_25094" data-name="Path 25094" d="M3289.154,720.365l-30.329-54.036,30.329-49.551h59.376L3378,666.33" transform="translate(-2819.566 -98.619)" fill="none" stroke="#989898" stroke-width="1.5"/>
    <path id="Path_25097" data-name="Path 25097" d="M-83.391-2.178a1.278,1.278,0,0,0-1.279-1.3,1.282,1.282,0,0,0-1.3,1.3,1.282,1.282,0,0,0,1.3,1.3A1.278,1.278,0,0,0-83.391-2.178Zm3.588,0a1.278,1.278,0,0,0-1.279-1.3,1.282,1.282,0,0,0-1.3,1.3,1.282,1.282,0,0,0,1.3,1.3A1.278,1.278,0,0,0-79.8-2.178Zm-7.159,0a1.278,1.278,0,0,0-1.279-1.3,1.282,1.282,0,0,0-1.3,1.3,1.282,1.282,0,0,0,1.3,1.3A1.278,1.278,0,0,0-86.962-2.178Zm14.9,0a1.278,1.278,0,0,0-1.279-1.3,1.282,1.282,0,0,0-1.3,1.3,1.282,1.282,0,0,0,1.3,1.3A1.278,1.278,0,0,0-72.057-2.178Zm3.588,0a1.278,1.278,0,0,0-1.279-1.3,1.282,1.282,0,0,0-1.3,1.3,1.282,1.282,0,0,0,1.3,1.3A1.278,1.278,0,0,0-68.469-2.178Zm-7.159,0a1.278,1.278,0,0,0-1.279-1.3,1.282,1.282,0,0,0-1.3,1.3,1.282,1.282,0,0,0,1.3,1.3A1.278,1.278,0,0,0-75.628-2.178Zm14.9,0A1.278,1.278,0,0,0-62-3.475a1.282,1.282,0,0,0-1.3,1.3A1.282,1.282,0,0,0-62-.881,1.278,1.278,0,0,0-60.723-2.178Zm3.588,0a1.278,1.278,0,0,0-1.279-1.3,1.282,1.282,0,0,0-1.3,1.3,1.282,1.282,0,0,0,1.3,1.3A1.278,1.278,0,0,0-57.135-2.178Zm-7.159,0a1.278,1.278,0,0,0-1.279-1.3,1.282,1.282,0,0,0-1.3,1.3,1.282,1.282,0,0,0,1.3,1.3A1.278,1.278,0,0,0-64.294-2.178Zm14.9,0a1.278,1.278,0,0,0-1.279-1.3,1.282,1.282,0,0,0-1.3,1.3,1.282,1.282,0,0,0,1.3,1.3A1.278,1.278,0,0,0-49.389-2.178Zm3.588,0a1.278,1.278,0,0,0-1.279-1.3,1.282,1.282,0,0,0-1.3,1.3,1.282,1.282,0,0,0,1.3,1.3A1.278,1.278,0,0,0-45.8-2.178Zm-7.159,0a1.278,1.278,0,0,0-1.279-1.3,1.282,1.282,0,0,0-1.3,1.3,1.282,1.282,0,0,0,1.3,1.3A1.278,1.278,0,0,0-52.96-2.178Zm14.9,0a1.278,1.278,0,0,0-1.279-1.3,1.282,1.282,0,0,0-1.3,1.3,1.282,1.282,0,0,0,1.3,1.3A1.278,1.278,0,0,0-38.056-2.178Zm3.588,0a1.278,1.278,0,0,0-1.279-1.3,1.282,1.282,0,0,0-1.3,1.3,1.282,1.282,0,0,0,1.3,1.3A1.278,1.278,0,0,0-34.467-2.178Zm-7.159,0a1.278,1.278,0,0,0-1.279-1.3,1.282,1.282,0,0,0-1.3,1.3,1.282,1.282,0,0,0,1.3,1.3A1.278,1.278,0,0,0-41.626-2.178Zm14.9,0A1.278,1.278,0,0,0-28-3.475a1.282,1.282,0,0,0-1.3,1.3A1.282,1.282,0,0,0-28-.881,1.278,1.278,0,0,0-26.722-2.178Zm3.588,0a1.278,1.278,0,0,0-1.279-1.3,1.282,1.282,0,0,0-1.3,1.3,1.282,1.282,0,0,0,1.3,1.3A1.278,1.278,0,0,0-23.133-2.178Zm-7.159,0a1.278,1.278,0,0,0-1.279-1.3,1.282,1.282,0,0,0-1.3,1.3,1.282,1.282,0,0,0,1.3,1.3A1.278,1.278,0,0,0-30.292-2.178Zm14.9,0a1.278,1.278,0,0,0-1.279-1.3,1.282,1.282,0,0,0-1.3,1.3,1.282,1.282,0,0,0,1.3,1.3A1.278,1.278,0,0,0-15.388-2.178Zm3.588,0a1.278,1.278,0,0,0-1.279-1.3,1.282,1.282,0,0,0-1.3,1.3,1.282,1.282,0,0,0,1.3,1.3A1.278,1.278,0,0,0-11.8-2.178Zm-7.159,0a1.278,1.278,0,0,0-1.279-1.3,1.282,1.282,0,0,0-1.3,1.3,1.282,1.282,0,0,0,1.3,1.3A1.278,1.278,0,0,0-18.959-2.178Zm14.9,0a1.278,1.278,0,0,0-1.279-1.3,1.282,1.282,0,0,0-1.3,1.3,1.282,1.282,0,0,0,1.3,1.3A1.278,1.278,0,0,0-4.054-2.178Zm3.588,0a1.278,1.278,0,0,0-1.279-1.3,1.282,1.282,0,0,0-1.3,1.3,1.282,1.282,0,0,0,1.3,1.3A1.278,1.278,0,0,0-.466-2.178Zm-7.159,0A1.278,1.278,0,0,0-8.9-3.475a1.282,1.282,0,0,0-1.3,1.3,1.282,1.282,0,0,0,1.3,1.3A1.278,1.278,0,0,0-7.625-2.178Zm14.9,0A1.278,1.278,0,0,0,6-3.475a1.282,1.282,0,0,0-1.3,1.3A1.282,1.282,0,0,0,6-.881,1.278,1.278,0,0,0,7.28-2.178Zm3.588,0a1.278,1.278,0,0,0-1.279-1.3,1.282,1.282,0,0,0-1.3,1.3,1.282,1.282,0,0,0,1.3,1.3A1.278,1.278,0,0,0,10.868-2.178Zm-7.159,0a1.278,1.278,0,0,0-1.279-1.3,1.282,1.282,0,0,0-1.3,1.3,1.282,1.282,0,0,0,1.3,1.3A1.278,1.278,0,0,0,3.709-2.178Zm14.9,0a1.278,1.278,0,0,0-1.279-1.3,1.282,1.282,0,0,0-1.3,1.3,1.282,1.282,0,0,0,1.3,1.3A1.278,1.278,0,0,0,18.614-2.178Zm3.588,0a1.278,1.278,0,0,0-1.279-1.3,1.282,1.282,0,0,0-1.3,1.3,1.282,1.282,0,0,0,1.3,1.3A1.278,1.278,0,0,0,22.2-2.178Zm-7.159,0a1.278,1.278,0,0,0-1.279-1.3,1.282,1.282,0,0,0-1.3,1.3,1.282,1.282,0,0,0,1.3,1.3A1.278,1.278,0,0,0,15.043-2.178Zm14.9,0a1.278,1.278,0,0,0-1.279-1.3,1.282,1.282,0,0,0-1.3,1.3,1.282,1.282,0,0,0,1.3,1.3A1.278,1.278,0,0,0,29.947-2.178Zm3.588,0a1.278,1.278,0,0,0-1.279-1.3,1.282,1.282,0,0,0-1.3,1.3,1.282,1.282,0,0,0,1.3,1.3A1.278,1.278,0,0,0,33.536-2.178Zm-7.159,0a1.278,1.278,0,0,0-1.279-1.3,1.282,1.282,0,0,0-1.3,1.3,1.282,1.282,0,0,0,1.3,1.3A1.278,1.278,0,0,0,26.377-2.178Zm11.334,0a1.278,1.278,0,0,0-1.279-1.3,1.282,1.282,0,0,0-1.3,1.3,1.282,1.282,0,0,0,1.3,1.3A1.278,1.278,0,0,0,37.711-2.178Z" transform="translate(1174.105 338.834)" fill="#989898"/>
    <path id="Path_25098" data-name="Path 25098" d="M-83.391-2.178a1.278,1.278,0,0,0-1.279-1.3,1.282,1.282,0,0,0-1.3,1.3,1.282,1.282,0,0,0,1.3,1.3A1.278,1.278,0,0,0-83.391-2.178Zm3.588,0a1.278,1.278,0,0,0-1.279-1.3,1.282,1.282,0,0,0-1.3,1.3,1.282,1.282,0,0,0,1.3,1.3A1.278,1.278,0,0,0-79.8-2.178Zm-7.159,0a1.278,1.278,0,0,0-1.279-1.3,1.282,1.282,0,0,0-1.3,1.3,1.282,1.282,0,0,0,1.3,1.3A1.278,1.278,0,0,0-86.962-2.178Zm14.9,0a1.278,1.278,0,0,0-1.279-1.3,1.282,1.282,0,0,0-1.3,1.3,1.282,1.282,0,0,0,1.3,1.3A1.278,1.278,0,0,0-72.057-2.178Zm3.588,0a1.278,1.278,0,0,0-1.279-1.3,1.282,1.282,0,0,0-1.3,1.3,1.282,1.282,0,0,0,1.3,1.3A1.278,1.278,0,0,0-68.469-2.178Zm-7.159,0a1.278,1.278,0,0,0-1.279-1.3,1.282,1.282,0,0,0-1.3,1.3,1.282,1.282,0,0,0,1.3,1.3A1.278,1.278,0,0,0-75.628-2.178Zm14.9,0A1.278,1.278,0,0,0-62-3.475a1.282,1.282,0,0,0-1.3,1.3A1.282,1.282,0,0,0-62-.881,1.278,1.278,0,0,0-60.723-2.178Zm3.588,0a1.278,1.278,0,0,0-1.279-1.3,1.282,1.282,0,0,0-1.3,1.3,1.282,1.282,0,0,0,1.3,1.3A1.278,1.278,0,0,0-57.135-2.178Zm-7.159,0a1.278,1.278,0,0,0-1.279-1.3,1.282,1.282,0,0,0-1.3,1.3,1.282,1.282,0,0,0,1.3,1.3A1.278,1.278,0,0,0-64.294-2.178Zm14.9,0a1.278,1.278,0,0,0-1.279-1.3,1.282,1.282,0,0,0-1.3,1.3,1.282,1.282,0,0,0,1.3,1.3A1.278,1.278,0,0,0-49.389-2.178Zm3.588,0a1.278,1.278,0,0,0-1.279-1.3,1.282,1.282,0,0,0-1.3,1.3,1.282,1.282,0,0,0,1.3,1.3A1.278,1.278,0,0,0-45.8-2.178Zm-7.159,0a1.278,1.278,0,0,0-1.279-1.3,1.282,1.282,0,0,0-1.3,1.3,1.282,1.282,0,0,0,1.3,1.3A1.278,1.278,0,0,0-52.96-2.178Zm14.9,0a1.278,1.278,0,0,0-1.279-1.3,1.282,1.282,0,0,0-1.3,1.3,1.282,1.282,0,0,0,1.3,1.3A1.278,1.278,0,0,0-38.056-2.178Zm3.588,0a1.278,1.278,0,0,0-1.279-1.3,1.282,1.282,0,0,0-1.3,1.3,1.282,1.282,0,0,0,1.3,1.3A1.278,1.278,0,0,0-34.467-2.178Zm-7.159,0a1.278,1.278,0,0,0-1.279-1.3,1.282,1.282,0,0,0-1.3,1.3,1.282,1.282,0,0,0,1.3,1.3A1.278,1.278,0,0,0-41.626-2.178Zm14.9,0A1.278,1.278,0,0,0-28-3.475a1.282,1.282,0,0,0-1.3,1.3A1.282,1.282,0,0,0-28-.881,1.278,1.278,0,0,0-26.722-2.178Zm3.588,0a1.278,1.278,0,0,0-1.279-1.3,1.282,1.282,0,0,0-1.3,1.3,1.282,1.282,0,0,0,1.3,1.3A1.278,1.278,0,0,0-23.133-2.178Zm-7.159,0a1.278,1.278,0,0,0-1.279-1.3,1.282,1.282,0,0,0-1.3,1.3,1.282,1.282,0,0,0,1.3,1.3A1.278,1.278,0,0,0-30.292-2.178Zm14.9,0a1.278,1.278,0,0,0-1.279-1.3,1.282,1.282,0,0,0-1.3,1.3,1.282,1.282,0,0,0,1.3,1.3A1.278,1.278,0,0,0-15.388-2.178Zm3.588,0a1.278,1.278,0,0,0-1.279-1.3,1.282,1.282,0,0,0-1.3,1.3,1.282,1.282,0,0,0,1.3,1.3A1.278,1.278,0,0,0-11.8-2.178Zm-7.159,0a1.278,1.278,0,0,0-1.279-1.3,1.282,1.282,0,0,0-1.3,1.3,1.282,1.282,0,0,0,1.3,1.3A1.278,1.278,0,0,0-18.959-2.178Zm14.9,0a1.278,1.278,0,0,0-1.279-1.3,1.282,1.282,0,0,0-1.3,1.3,1.282,1.282,0,0,0,1.3,1.3A1.278,1.278,0,0,0-4.054-2.178Zm3.588,0a1.278,1.278,0,0,0-1.279-1.3,1.282,1.282,0,0,0-1.3,1.3,1.282,1.282,0,0,0,1.3,1.3A1.278,1.278,0,0,0-.466-2.178Zm-7.159,0A1.278,1.278,0,0,0-8.9-3.475a1.282,1.282,0,0,0-1.3,1.3,1.282,1.282,0,0,0,1.3,1.3A1.278,1.278,0,0,0-7.625-2.178Zm14.9,0A1.278,1.278,0,0,0,6-3.475a1.282,1.282,0,0,0-1.3,1.3A1.282,1.282,0,0,0,6-.881,1.278,1.278,0,0,0,7.28-2.178Zm3.588,0a1.278,1.278,0,0,0-1.279-1.3,1.282,1.282,0,0,0-1.3,1.3,1.282,1.282,0,0,0,1.3,1.3A1.278,1.278,0,0,0,10.868-2.178Zm-7.159,0a1.278,1.278,0,0,0-1.279-1.3,1.282,1.282,0,0,0-1.3,1.3,1.282,1.282,0,0,0,1.3,1.3A1.278,1.278,0,0,0,3.709-2.178Zm14.9,0a1.278,1.278,0,0,0-1.279-1.3,1.282,1.282,0,0,0-1.3,1.3,1.282,1.282,0,0,0,1.3,1.3A1.278,1.278,0,0,0,18.614-2.178Zm3.588,0a1.278,1.278,0,0,0-1.279-1.3,1.282,1.282,0,0,0-1.3,1.3,1.282,1.282,0,0,0,1.3,1.3A1.278,1.278,0,0,0,22.2-2.178Zm-7.159,0a1.278,1.278,0,0,0-1.279-1.3,1.282,1.282,0,0,0-1.3,1.3,1.282,1.282,0,0,0,1.3,1.3A1.278,1.278,0,0,0,15.043-2.178Zm14.9,0a1.278,1.278,0,0,0-1.279-1.3,1.282,1.282,0,0,0-1.3,1.3,1.282,1.282,0,0,0,1.3,1.3A1.278,1.278,0,0,0,29.947-2.178Zm3.588,0a1.278,1.278,0,0,0-1.279-1.3,1.282,1.282,0,0,0-1.3,1.3,1.282,1.282,0,0,0,1.3,1.3A1.278,1.278,0,0,0,33.536-2.178Zm-7.159,0a1.278,1.278,0,0,0-1.279-1.3,1.282,1.282,0,0,0-1.3,1.3,1.282,1.282,0,0,0,1.3,1.3A1.278,1.278,0,0,0,26.377-2.178Zm11.334,0a1.278,1.278,0,0,0-1.279-1.3,1.282,1.282,0,0,0-1.3,1.3,1.282,1.282,0,0,0,1.3,1.3A1.278,1.278,0,0,0,37.711-2.178Z" transform="translate(975.852 415.577)"/>
    <path id="Path_25100" data-name="Path 25100" d="M-83.391-2.178a1.278,1.278,0,0,0-1.279-1.3,1.282,1.282,0,0,0-1.3,1.3,1.282,1.282,0,0,0,1.3,1.3A1.278,1.278,0,0,0-83.391-2.178Zm3.588,0a1.278,1.278,0,0,0-1.279-1.3,1.282,1.282,0,0,0-1.3,1.3,1.282,1.282,0,0,0,1.3,1.3A1.278,1.278,0,0,0-79.8-2.178Zm-7.159,0a1.278,1.278,0,0,0-1.279-1.3,1.282,1.282,0,0,0-1.3,1.3,1.282,1.282,0,0,0,1.3,1.3A1.278,1.278,0,0,0-86.962-2.178Zm14.9,0a1.278,1.278,0,0,0-1.279-1.3,1.282,1.282,0,0,0-1.3,1.3,1.282,1.282,0,0,0,1.3,1.3A1.278,1.278,0,0,0-72.057-2.178Zm3.588,0a1.278,1.278,0,0,0-1.279-1.3,1.282,1.282,0,0,0-1.3,1.3,1.282,1.282,0,0,0,1.3,1.3A1.278,1.278,0,0,0-68.469-2.178Zm-7.159,0a1.278,1.278,0,0,0-1.279-1.3,1.282,1.282,0,0,0-1.3,1.3,1.282,1.282,0,0,0,1.3,1.3A1.278,1.278,0,0,0-75.628-2.178Zm14.9,0A1.278,1.278,0,0,0-62-3.475a1.282,1.282,0,0,0-1.3,1.3A1.282,1.282,0,0,0-62-.881,1.278,1.278,0,0,0-60.723-2.178Zm3.588,0a1.278,1.278,0,0,0-1.279-1.3,1.282,1.282,0,0,0-1.3,1.3,1.282,1.282,0,0,0,1.3,1.3A1.278,1.278,0,0,0-57.135-2.178Zm-7.159,0a1.278,1.278,0,0,0-1.279-1.3,1.282,1.282,0,0,0-1.3,1.3,1.282,1.282,0,0,0,1.3,1.3A1.278,1.278,0,0,0-64.294-2.178Zm14.9,0a1.278,1.278,0,0,0-1.279-1.3,1.282,1.282,0,0,0-1.3,1.3,1.282,1.282,0,0,0,1.3,1.3A1.278,1.278,0,0,0-49.389-2.178Zm3.588,0a1.278,1.278,0,0,0-1.279-1.3,1.282,1.282,0,0,0-1.3,1.3,1.282,1.282,0,0,0,1.3,1.3A1.278,1.278,0,0,0-45.8-2.178Zm-7.159,0a1.278,1.278,0,0,0-1.279-1.3,1.282,1.282,0,0,0-1.3,1.3,1.282,1.282,0,0,0,1.3,1.3A1.278,1.278,0,0,0-52.96-2.178Zm14.9,0a1.278,1.278,0,0,0-1.279-1.3,1.282,1.282,0,0,0-1.3,1.3,1.282,1.282,0,0,0,1.3,1.3A1.278,1.278,0,0,0-38.056-2.178Zm3.588,0a1.278,1.278,0,0,0-1.279-1.3,1.282,1.282,0,0,0-1.3,1.3,1.282,1.282,0,0,0,1.3,1.3A1.278,1.278,0,0,0-34.467-2.178Zm-7.159,0a1.278,1.278,0,0,0-1.279-1.3,1.282,1.282,0,0,0-1.3,1.3,1.282,1.282,0,0,0,1.3,1.3A1.278,1.278,0,0,0-41.626-2.178Zm14.9,0A1.278,1.278,0,0,0-28-3.475a1.282,1.282,0,0,0-1.3,1.3A1.282,1.282,0,0,0-28-.881,1.278,1.278,0,0,0-26.722-2.178Zm3.588,0a1.278,1.278,0,0,0-1.279-1.3,1.282,1.282,0,0,0-1.3,1.3,1.282,1.282,0,0,0,1.3,1.3A1.278,1.278,0,0,0-23.133-2.178Zm-7.159,0a1.278,1.278,0,0,0-1.279-1.3,1.282,1.282,0,0,0-1.3,1.3,1.282,1.282,0,0,0,1.3,1.3A1.278,1.278,0,0,0-30.292-2.178Zm14.9,0a1.278,1.278,0,0,0-1.279-1.3,1.282,1.282,0,0,0-1.3,1.3,1.282,1.282,0,0,0,1.3,1.3A1.278,1.278,0,0,0-15.388-2.178Zm3.588,0a1.278,1.278,0,0,0-1.279-1.3,1.282,1.282,0,0,0-1.3,1.3,1.282,1.282,0,0,0,1.3,1.3A1.278,1.278,0,0,0-11.8-2.178Zm-7.159,0a1.278,1.278,0,0,0-1.279-1.3,1.282,1.282,0,0,0-1.3,1.3,1.282,1.282,0,0,0,1.3,1.3A1.278,1.278,0,0,0-18.959-2.178Zm14.9,0a1.278,1.278,0,0,0-1.279-1.3,1.282,1.282,0,0,0-1.3,1.3,1.282,1.282,0,0,0,1.3,1.3A1.278,1.278,0,0,0-4.054-2.178Zm3.588,0a1.278,1.278,0,0,0-1.279-1.3,1.282,1.282,0,0,0-1.3,1.3,1.282,1.282,0,0,0,1.3,1.3A1.278,1.278,0,0,0-.466-2.178Zm-7.159,0A1.278,1.278,0,0,0-8.9-3.475a1.282,1.282,0,0,0-1.3,1.3,1.282,1.282,0,0,0,1.3,1.3A1.278,1.278,0,0,0-7.625-2.178Zm14.9,0A1.278,1.278,0,0,0,6-3.475a1.282,1.282,0,0,0-1.3,1.3A1.282,1.282,0,0,0,6-.881,1.278,1.278,0,0,0,7.28-2.178Zm3.588,0a1.278,1.278,0,0,0-1.279-1.3,1.282,1.282,0,0,0-1.3,1.3,1.282,1.282,0,0,0,1.3,1.3A1.278,1.278,0,0,0,10.868-2.178Zm-7.159,0a1.278,1.278,0,0,0-1.279-1.3,1.282,1.282,0,0,0-1.3,1.3,1.282,1.282,0,0,0,1.3,1.3A1.278,1.278,0,0,0,3.709-2.178Zm14.9,0a1.278,1.278,0,0,0-1.279-1.3,1.282,1.282,0,0,0-1.3,1.3,1.282,1.282,0,0,0,1.3,1.3A1.278,1.278,0,0,0,18.614-2.178Zm-3.571,0a1.278,1.278,0,0,0-1.279-1.3,1.282,1.282,0,0,0-1.3,1.3,1.282,1.282,0,0,0,1.3,1.3A1.278,1.278,0,0,0,15.043-2.178Z" transform="translate(959.662 742.217)" fill="#989898"/>
    <path id="Path_25101" data-name="Path 25101" d="M-83.391-2.178a1.278,1.278,0,0,0-1.279-1.3,1.282,1.282,0,0,0-1.3,1.3,1.282,1.282,0,0,0,1.3,1.3A1.278,1.278,0,0,0-83.391-2.178Zm3.588,0a1.278,1.278,0,0,0-1.279-1.3,1.282,1.282,0,0,0-1.3,1.3,1.282,1.282,0,0,0,1.3,1.3A1.278,1.278,0,0,0-79.8-2.178Zm-7.159,0a1.278,1.278,0,0,0-1.279-1.3,1.282,1.282,0,0,0-1.3,1.3,1.282,1.282,0,0,0,1.3,1.3A1.278,1.278,0,0,0-86.962-2.178Zm14.9,0a1.278,1.278,0,0,0-1.279-1.3,1.282,1.282,0,0,0-1.3,1.3,1.282,1.282,0,0,0,1.3,1.3A1.278,1.278,0,0,0-72.057-2.178Zm3.588,0a1.278,1.278,0,0,0-1.279-1.3,1.282,1.282,0,0,0-1.3,1.3,1.282,1.282,0,0,0,1.3,1.3A1.278,1.278,0,0,0-68.469-2.178Zm-7.159,0a1.278,1.278,0,0,0-1.279-1.3,1.282,1.282,0,0,0-1.3,1.3,1.282,1.282,0,0,0,1.3,1.3A1.278,1.278,0,0,0-75.628-2.178Zm14.9,0A1.278,1.278,0,0,0-62-3.475a1.282,1.282,0,0,0-1.3,1.3A1.282,1.282,0,0,0-62-.881,1.278,1.278,0,0,0-60.723-2.178Zm3.588,0a1.278,1.278,0,0,0-1.279-1.3,1.282,1.282,0,0,0-1.3,1.3,1.282,1.282,0,0,0,1.3,1.3A1.278,1.278,0,0,0-57.135-2.178Zm-7.159,0a1.278,1.278,0,0,0-1.279-1.3,1.282,1.282,0,0,0-1.3,1.3,1.282,1.282,0,0,0,1.3,1.3A1.278,1.278,0,0,0-64.294-2.178Zm14.9,0a1.278,1.278,0,0,0-1.279-1.3,1.282,1.282,0,0,0-1.3,1.3,1.282,1.282,0,0,0,1.3,1.3A1.278,1.278,0,0,0-49.389-2.178Zm3.588,0a1.278,1.278,0,0,0-1.279-1.3,1.282,1.282,0,0,0-1.3,1.3,1.282,1.282,0,0,0,1.3,1.3A1.278,1.278,0,0,0-45.8-2.178Zm-7.159,0a1.278,1.278,0,0,0-1.279-1.3,1.282,1.282,0,0,0-1.3,1.3,1.282,1.282,0,0,0,1.3,1.3A1.278,1.278,0,0,0-52.96-2.178Zm14.9,0a1.278,1.278,0,0,0-1.279-1.3,1.282,1.282,0,0,0-1.3,1.3,1.282,1.282,0,0,0,1.3,1.3A1.278,1.278,0,0,0-38.056-2.178Zm3.588,0a1.278,1.278,0,0,0-1.279-1.3,1.282,1.282,0,0,0-1.3,1.3,1.282,1.282,0,0,0,1.3,1.3A1.278,1.278,0,0,0-34.467-2.178Zm-7.159,0a1.278,1.278,0,0,0-1.279-1.3,1.282,1.282,0,0,0-1.3,1.3,1.282,1.282,0,0,0,1.3,1.3A1.278,1.278,0,0,0-41.626-2.178Zm14.9,0A1.278,1.278,0,0,0-28-3.475a1.282,1.282,0,0,0-1.3,1.3A1.282,1.282,0,0,0-28-.881,1.278,1.278,0,0,0-26.722-2.178Zm3.588,0a1.278,1.278,0,0,0-1.279-1.3,1.282,1.282,0,0,0-1.3,1.3,1.282,1.282,0,0,0,1.3,1.3A1.278,1.278,0,0,0-23.133-2.178Zm-7.159,0a1.278,1.278,0,0,0-1.279-1.3,1.282,1.282,0,0,0-1.3,1.3,1.282,1.282,0,0,0,1.3,1.3A1.278,1.278,0,0,0-30.292-2.178Zm14.9,0a1.278,1.278,0,0,0-1.279-1.3,1.282,1.282,0,0,0-1.3,1.3,1.282,1.282,0,0,0,1.3,1.3A1.278,1.278,0,0,0-15.388-2.178Zm3.588,0a1.278,1.278,0,0,0-1.279-1.3,1.282,1.282,0,0,0-1.3,1.3,1.282,1.282,0,0,0,1.3,1.3A1.278,1.278,0,0,0-11.8-2.178Zm-7.159,0a1.278,1.278,0,0,0-1.279-1.3,1.282,1.282,0,0,0-1.3,1.3,1.282,1.282,0,0,0,1.3,1.3A1.278,1.278,0,0,0-18.959-2.178Zm14.9,0a1.278,1.278,0,0,0-1.279-1.3,1.282,1.282,0,0,0-1.3,1.3,1.282,1.282,0,0,0,1.3,1.3A1.278,1.278,0,0,0-4.054-2.178Zm3.588,0a1.278,1.278,0,0,0-1.279-1.3,1.282,1.282,0,0,0-1.3,1.3,1.282,1.282,0,0,0,1.3,1.3A1.278,1.278,0,0,0-.466-2.178Zm-7.159,0A1.278,1.278,0,0,0-8.9-3.475a1.282,1.282,0,0,0-1.3,1.3,1.282,1.282,0,0,0,1.3,1.3A1.278,1.278,0,0,0-7.625-2.178Zm14.9,0A1.278,1.278,0,0,0,6-3.475a1.282,1.282,0,0,0-1.3,1.3A1.282,1.282,0,0,0,6-.881,1.278,1.278,0,0,0,7.28-2.178Zm3.588,0a1.278,1.278,0,0,0-1.279-1.3,1.282,1.282,0,0,0-1.3,1.3,1.282,1.282,0,0,0,1.3,1.3A1.278,1.278,0,0,0,10.868-2.178Zm-7.159,0a1.278,1.278,0,0,0-1.279-1.3,1.282,1.282,0,0,0-1.3,1.3,1.282,1.282,0,0,0,1.3,1.3A1.278,1.278,0,0,0,3.709-2.178Zm14.9,0a1.278,1.278,0,0,0-1.279-1.3,1.282,1.282,0,0,0-1.3,1.3,1.282,1.282,0,0,0,1.3,1.3A1.278,1.278,0,0,0,18.614-2.178Zm-3.571,0a1.278,1.278,0,0,0-1.279-1.3,1.282,1.282,0,0,0-1.3,1.3,1.282,1.282,0,0,0,1.3,1.3A1.278,1.278,0,0,0,15.043-2.178Z" transform="translate(1228.383 834.448)"/>
    <path id="Path_25099" data-name="Path 25099" d="M3447.821,637.877h81.162l40.745-69.56" transform="translate(-2874.264 -84.594)" fill="none" stroke="#989898" stroke-width="1.5"/>
    <path id="Subtraction_68" data-name="Subtraction 68" d="M41.526,131.533a42.047,42.047,0,0,1-16.078-3.03,40.767,40.767,0,0,1-13.4-9.1A40.619,40.619,0,0,1,0,89.764V0H21.984V89.791a19.139,19.139,0,0,0,5.7,13.933,18.831,18.831,0,0,0,13.843,5.726,19.228,19.228,0,0,0,13.923-5.7A18.863,18.863,0,0,0,61.231,89.9,19.741,19.741,0,0,0,41.526,70.185,10.369,10.369,0,0,1,30.614,59.223a11.091,11.091,0,0,1,3.013-8.015,10.55,10.55,0,0,1,7.9-3.107A40.438,40.438,0,0,1,71.165,60.179,40.878,40.878,0,0,1,80.2,73.66,43.014,43.014,0,0,1,83.214,89.9a42.243,42.243,0,0,1-3.032,16.117,40.953,40.953,0,0,1-9.1,13.438A40.515,40.515,0,0,1,41.526,131.533Z" transform="translate(961.912 469.51)" fill="#13bec1" stroke="rgba(0,0,0,0)" stroke-width="1"/>
    <path id="Path_24885" data-name="Path 24885" d="M2528.114,463.072l-26.361,46.723,26.361,44.9h52.359l25.452-46.178-25.452-45.45Z" transform="translate(-1672.393 -60.188)" fill="red"/>
    <path id="Path_24886" data-name="Path 24886" d="M21.052-46.134H4.554V-17.66h16.5V-22.3H10.257V-29.84H19.83v-4.522H10.257V-41.49H21.052Zm13.076.041H24.188V-17.66h9.939c9.084,0,14.99-5.581,14.99-14.176C49.118-40.472,43.211-46.093,34.128-46.093ZM29.891-22.508V-41.287h4.033c5.988,0,9.369,3.544,9.369,9.451s-3.381,9.328-9.369,9.328Z" transform="translate(854.785 480.77)" fill="#fff"/>
  </g>
</svg>
